<svg width="20" height="16" viewBox="0 0 20 16" fill="none" xmlns="http://www.w3.org/2000/svg">
<path d="M13.242 0.24765L9.99989 10.4689L6.75798 0.24765C2.90144 1.57322 0 5.16913 0 9.29159C0 11.7746 1.01298 14.0644 2.65178 15.752H7.35212L7.84488 13.6151C2.22957 11.4149 3.29134 4.59717 5.32701 3.48428C5.56864 3.55694 9.10942 15.7017 9.10942 15.7017C9.15779 15.7017 9.31493 15.7017 9.50692 15.7017C9.54747 15.7017 9.70018 15.7017 9.89048 15.7017C9.95934 15.7017 10.0337 15.7017 10.1091 15.7017C10.2384 15.7017 10.3725 15.7017 10.4924 15.7017C10.6846 15.7017 10.8416 15.7017 10.8902 15.7017C10.8902 15.7017 14.4311 3.55694 14.6726 3.48428C16.7085 4.59717 17.7698 11.4149 12.1545 13.6151L12.6475 15.752H17.3478C18.9868 14.0644 19.9998 11.7746 19.9998 9.29159C19.9998 5.16913 17.0983 1.57322 13.242 0.24765Z" fill="#8EB3F5"/>
</svg>
