<svg width="70" height="70" viewBox="0 0 70 70" fill="none" xmlns="http://www.w3.org/2000/svg">
<path d="M67.8025 57.1975L55.3037 44.6975C53.0856 42.4794 49.5888 42.0231 46.8113 43.2762L44.3456 40.8106C47.8763 36.4994 50 30.9944 50 25C50 11.2144 38.7856 0 25 0C11.2144 0 0 11.2144 0 25C0 38.7856 11.2144 50 25 50C30.9944 50 36.4994 47.8763 40.8106 44.3456L43.2506 46.7856C42.7756 47.7806 42.5 48.865 42.5 50C42.5 52.0031 43.28 53.8869 44.6975 55.3025L57.1963 67.8025C58.6138 69.22 60.4969 70 62.5 70C64.5031 70 66.3869 69.22 67.8025 67.8037C69.22 66.3863 70 64.5031 70 62.5C70 60.4969 69.22 58.6131 67.8025 57.1975ZM25 45C13.9719 45 5 36.0281 5 25C5 13.9719 13.9719 5 25 5C36.0281 5 45 13.9719 45 25C45 36.0281 36.0281 45 25 45ZM64.2663 64.2675C63.3237 65.2125 61.6769 65.2125 60.7325 64.2675L48.2325 51.7675C48.2325 51.7675 48.2325 51.7675 48.2325 51.7662C47.76 51.295 47.5 50.6675 47.5 50C47.5 49.3325 47.76 48.705 48.2338 48.2325C48.705 47.76 49.3325 47.5 50 47.5C50.6675 47.5 51.295 47.76 51.7675 48.2325L64.2675 60.7338C64.74 61.205 65 61.8325 65 62.5C65 63.1675 64.74 63.795 64.2663 64.2675ZM35 25C35 26.3806 33.8806 27.5 32.5 27.5H27.5V32.5C27.5 33.8806 26.3806 35 25 35C23.6194 35 22.5 33.8806 22.5 32.5V27.5H17.5C16.1194 27.5 15 26.3806 15 25C15 23.6194 16.1194 22.5 17.5 22.5H22.5V17.5C22.5 16.1194 23.6194 15 25 15C26.3806 15 27.5 16.1194 27.5 17.5V22.5H32.5C33.8806 22.5 35 23.6194 35 25Z" fill="#222222"/>
</svg>
