<svg width="40" height="40" viewBox="0 0 40 40" fill="none" xmlns="http://www.w3.org/2000/svg">
<path d="M35.313 23.6852V9.37398H32.4505V6.51156H28.3003V15.0984H26.0107V7.22719H23.1484V1.50258H20.2856V0H18.9978V1.50258H16.1358V7.22719H13.2736V17.9608H10.9838V15.0986H8.12164V12.2362H4.6868V27.2627V29.4095H1.82461V40H4.6868H5.97476H13.2736H14.5616H14.5618H24.7224H26.0106H26.0109H33.3095H34.5973H34.5975H38.1753H38.1755V23.6852H35.313ZM4.68656 38.712H3.11234V30.6978H4.68656V38.712ZM5.97476 13.5242H6.83336V16.3864H9.69555V19.2486H13.2735V21.5384H7.54922H7.54898V27.2627H5.97476V13.5242ZM5.97476 38.712V28.5512H8.83695V28.5509V22.8267H13.2736V38.712H5.97476V38.712ZM14.5618 38.712V21.5384H14.5616V17.9608V8.51539H17.4237V2.79078H21.8603V8.51516H24.7225V15.0984H24.7223V21.5384V22.8266V38.712H14.5618V38.712ZM33.3094 38.712H26.0108V22.8266H30.447V28.5509H33.3094V38.712ZM36.887 38.712H34.5974V27.2628H34.597H31.735V21.5384H31.7346H26.0108V16.3864H29.588V7.79961H31.1623V10.662H34.0245V24.9734H36.887L36.887 38.712Z" fill="white"/>
<path d="M20.357 4.29343H18.9258V5.72461H20.357V4.29343Z" fill="white"/>
<path d="M20.357 7.15562H18.9258V8.58664H20.357V7.15562Z" fill="white"/>
<path d="M20.357 10.018H18.9258V11.4491H20.357V10.018Z" fill="white"/>
<path d="M20.357 12.88H18.9258V14.311H20.357V12.88Z" fill="white"/>
<path d="M20.357 15.742H18.9258V17.1732H20.357V15.742Z" fill="white"/>
<path d="M20.357 18.604H18.9258V20.035H20.357V18.604Z" fill="white"/>
<path d="M20.357 21.466H18.9258V22.897H20.357V21.466Z" fill="white"/>
<path d="M20.357 24.33H18.9258V25.7612H20.357V24.33Z" fill="white"/>
<path d="M20.357 27.192H18.9258V28.623H20.357V27.192Z" fill="white"/>
<path d="M20.357 30.054H18.9258V31.485H20.357V30.054Z" fill="white"/>
<path d="M20.357 32.916H18.9258V34.347H20.357V32.916Z" fill="white"/>
<path d="M20.357 35.778H18.9258V37.2091H20.357V35.778Z" fill="white"/>
<path d="M23.219 10.018H21.7878V11.4491H23.219V10.018Z" fill="white"/>
<path d="M23.219 12.88H21.7878V14.311H23.219V12.88Z" fill="white"/>
<path d="M23.219 15.742H21.7878V17.1732H23.219V15.742Z" fill="white"/>
<path d="M23.219 18.604H21.7878V20.035H23.219V18.604Z" fill="white"/>
<path d="M23.219 21.466H21.7878V22.897H23.219V21.466Z" fill="white"/>
<path d="M23.219 24.33H21.7878V25.7612H23.219V24.33Z" fill="white"/>
<path d="M23.219 27.192H21.7878V28.623H23.219V27.192Z" fill="white"/>
<path d="M23.219 30.054H21.7878V31.485H23.219V30.054Z" fill="white"/>
<path d="M23.219 32.916H21.7878V34.347H23.219V32.916Z" fill="white"/>
<path d="M23.219 35.778H21.7878V37.2091H23.219V35.778Z" fill="white"/>
<path d="M17.495 10.018H16.0638V11.4491H17.495V10.018Z" fill="white"/>
<path d="M17.495 12.88H16.0638V14.311H17.495V12.88Z" fill="white"/>
<path d="M17.495 15.742H16.0638V17.1732H17.495V15.742Z" fill="white"/>
<path d="M17.495 18.604H16.0638V20.035H17.495V18.604Z" fill="white"/>
<path d="M17.495 21.466H16.0638V22.897H17.495V21.466Z" fill="white"/>
<path d="M17.495 24.33H16.0638V25.7612H17.495V24.33Z" fill="white"/>
<path d="M17.495 27.192H16.0638V28.623H17.495V27.192Z" fill="white"/>
<path d="M17.495 30.054H16.0638V31.485H17.495V30.054Z" fill="white"/>
<path d="M17.495 32.916H16.0638V34.347H17.495V32.916Z" fill="white"/>
<path d="M17.495 35.778H16.0638V37.2091H17.495V35.778Z" fill="white"/>
<path d="M28.9448 24.33H27.5138V25.7612H28.9448V24.33Z" fill="white"/>
<path d="M28.9448 27.192H27.5138V28.623H28.9448V27.192Z" fill="white"/>
<path d="M28.9448 30.054H27.5138V31.485H28.9448V30.054Z" fill="white"/>
<path d="M28.9448 32.916H27.5138V34.347H28.9448V32.916Z" fill="white"/>
<path d="M28.9448 35.778H27.5138V37.2091H28.9448V35.778Z" fill="white"/>
<path d="M31.807 30.054H30.3758V31.485H31.807V30.054Z" fill="white"/>
<path d="M31.807 32.916H30.3758V34.347H31.807V32.916Z" fill="white"/>
<path d="M31.807 35.778H30.3758V37.2091H31.807V35.778Z" fill="white"/>
<path d="M11.7708 24.33H10.3398V25.7612H11.7708V24.33Z" fill="white"/>
<path d="M11.7708 27.192H10.3398V28.623H11.7708V27.192Z" fill="white"/>
<path d="M11.7708 30.054H10.3398V31.485H11.7708V30.054Z" fill="white"/>
<path d="M11.7708 32.916H10.3398V34.347H11.7708V32.916Z" fill="white"/>
<path d="M11.7708 35.778H10.3398V37.2091H11.7708V35.778Z" fill="white"/>
<path d="M8.90899 30.054H7.47781V31.485H8.90899V30.054Z" fill="white"/>
<path d="M8.90899 32.916H7.47781V34.347H8.90899V32.916Z" fill="white"/>
<path d="M8.90899 35.778H7.47781V37.2091H8.90899V35.778Z" fill="white"/>
</svg>
