<svg width="40" height="40" viewBox="0 0 40 40" fill="none" xmlns="http://www.w3.org/2000/svg">
<path d="M0 2.34563V37.6544H40V2.34563H0ZM6.27602 35.3106H2.34375V21.1719H6.27602V35.3106ZM6.27602 18.8281H2.34375V12.9306H6.27602V18.8281ZM25.1042 35.3106H14.8959V29.805H12.5521V35.3106H8.61984V21.1719H12.5521V26.6775H14.8959V21.1719H25.1042V35.3106ZM8.61977 18.8281V12.9306H12.552V18.8281H8.61977ZM37.6562 35.3106H33.724V29.4131H37.6562V35.3106ZM37.6562 18.8281H34.1159V21.1719H37.6562V27.0694H31.3802V35.3106H27.4479V21.1719H30.9883V18.8281H14.8959V10.5869H2.34375V4.68938H12.5521V7.45844H14.8959V4.68938H25.1042V15.6997H27.448V12.9306H37.6562V18.8281ZM37.6562 10.5869H27.4479V4.68938H37.6562V10.5869Z" fill="white"/>
</svg>
