<svg width="40" height="40" viewBox="0 0 40 40" fill="none" xmlns="http://www.w3.org/2000/svg">
<path d="M15.9 12.5667H14.2333C13.7913 12.5667 13.3674 12.7423 13.0548 13.0548C12.7423 13.3674 12.5667 13.7913 12.5667 14.2333V15.9C12.5667 16.342 12.7423 16.766 13.0548 17.0785C13.3674 17.3911 13.7913 17.5667 14.2333 17.5667C14.6754 17.5667 15.0993 17.3911 15.4118 17.0785C15.7244 16.766 15.9 16.342 15.9 15.9C16.342 15.9 16.7659 15.7244 17.0785 15.4119C17.3911 15.0993 17.5667 14.6754 17.5667 14.2333C17.5667 13.7913 17.3911 13.3674 17.0785 13.0548C16.7659 12.7423 16.342 12.5667 15.9 12.5667ZM25.7667 22.4333C25.3246 22.4333 24.9007 22.6089 24.5882 22.9215C24.2756 23.2341 24.1 23.658 24.1 24.1C23.658 24.1 23.234 24.2756 22.9215 24.5882C22.6089 24.9007 22.4333 25.3246 22.4333 25.7667C22.4333 26.2087 22.6089 26.6326 22.9215 26.9452C23.234 27.2577 23.658 27.4333 24.1 27.4333H25.7667C25.9855 27.4333 26.2023 27.3902 26.4045 27.3065C26.6067 27.2227 26.7904 27.1 26.9452 26.9452C27.0999 26.7904 27.2227 26.6067 27.3065 26.4045C27.3902 26.2023 27.4333 25.9855 27.4333 25.7667V24.1C27.4333 23.658 27.2577 23.2341 26.9452 22.9215C26.6326 22.6089 26.2087 22.4333 25.7667 22.4333ZM35 12.5667H27.4333V5.00001C27.4333 4.55798 27.2577 4.13406 26.9452 3.8215C26.6326 3.50894 26.2087 3.33334 25.7667 3.33334H5C4.55797 3.33334 4.13405 3.50894 3.82149 3.8215C3.50893 4.13406 3.33333 4.55798 3.33333 5.00001V25.7667C3.33333 26.2087 3.50893 26.6326 3.82149 26.9452C4.13405 27.2577 4.55797 27.4333 5 27.4333H12.5667V35C12.5667 35.442 12.7423 35.866 13.0548 36.1785C13.3674 36.4911 13.7913 36.6667 14.2333 36.6667H35C35.442 36.6667 35.866 36.4911 36.1785 36.1785C36.4911 35.866 36.6667 35.442 36.6667 35V14.2333C36.6667 13.7913 36.4911 13.3674 36.1785 13.0548C35.866 12.7423 35.442 12.5667 35 12.5667ZM33.3333 33.3333H15.9V27.4333C16.342 27.4333 16.7659 27.2577 17.0785 26.9452C17.3911 26.6326 17.5667 26.2087 17.5667 25.7667C17.5667 25.3246 17.3911 24.9007 17.0785 24.5882C16.7659 24.2756 16.342 24.1 15.9 24.1C15.9 23.658 15.7244 23.2341 15.4118 22.9215C15.0993 22.6089 14.6754 22.4333 14.2333 22.4333C13.7913 22.4333 13.3674 22.6089 13.0548 22.9215C12.7423 23.2341 12.5667 23.658 12.5667 24.1H6.66667V6.66668H24.1V12.5667C23.658 12.5667 23.234 12.7423 22.9215 13.0548C22.6089 13.3674 22.4333 13.7913 22.4333 14.2333C22.4333 14.6754 22.6089 15.0993 22.9215 15.4119C23.234 15.7244 23.658 15.9 24.1 15.9C24.1 16.342 24.2756 16.766 24.5882 17.0785C24.9007 17.3911 25.3246 17.5667 25.7667 17.5667C26.2087 17.5667 26.6326 17.3911 26.9452 17.0785C27.2577 16.766 27.4333 16.342 27.4333 15.9H33.3333V33.3333Z" fill="white"/>
</svg>
