<svg width="40" height="40" viewBox="0 0 40 40" fill="none" xmlns="http://www.w3.org/2000/svg">
<path d="M11.6667 3.75H5C4.66982 3.75432 4.35438 3.8874 4.12089 4.12089C3.8874 4.35438 3.75432 4.66982 3.75 5V11.6667C3.75432 11.9968 3.8874 12.3123 4.12089 12.5458C4.35438 12.7793 4.66982 12.9123 5 12.9167H11.6667C11.9968 12.9123 12.3123 12.7793 12.5458 12.5458C12.7793 12.3123 12.9123 11.9968 12.9167 11.6667V5C12.9123 4.66982 12.7793 4.35438 12.5458 4.12089C12.3123 3.8874 11.9968 3.75432 11.6667 3.75ZM10.4167 10.4167H6.25V6.25H10.4167V10.4167ZM35 3.75H28.3333C28.0032 3.75432 27.6877 3.8874 27.4542 4.12089C27.2207 4.35438 27.0877 4.66982 27.0833 5V11.6667C27.0877 11.9968 27.2207 12.3123 27.4542 12.5458C27.6877 12.7793 28.0032 12.9123 28.3333 12.9167H35C35.3302 12.9123 35.6456 12.7793 35.8791 12.5458C36.1126 12.3123 36.2457 11.9968 36.25 11.6667V5C36.2457 4.66982 36.1126 4.35438 35.8791 4.12089C35.6456 3.8874 35.3302 3.75432 35 3.75ZM33.75 10.4167H29.5833V6.25H33.75V10.4167ZM23.3333 3.75H16.6667C16.3365 3.75432 16.021 3.8874 15.7876 4.12089C15.5541 4.35438 15.421 4.66982 15.4167 5V11.6667C15.421 11.9968 15.5541 12.3123 15.7876 12.5458C16.021 12.7793 16.3365 12.9123 16.6667 12.9167H23.3333C23.6635 12.9123 23.979 12.7793 24.2124 12.5458C24.4459 12.3123 24.579 11.9968 24.5833 11.6667V5C24.579 4.66982 24.4459 4.35438 24.2124 4.12089C23.979 3.8874 23.6635 3.75432 23.3333 3.75ZM22.0833 10.4167H17.9167V6.25H22.0833V10.4167ZM11.6667 15.4167H5C4.66982 15.421 4.35438 15.5541 4.12089 15.7876C3.8874 16.021 3.75432 16.3365 3.75 16.6667V23.3333C3.75432 23.6635 3.8874 23.979 4.12089 24.2124C4.35438 24.4459 4.66982 24.579 5 24.5833H11.6667C11.9968 24.579 12.3123 24.4459 12.5458 24.2124C12.7793 23.979 12.9123 23.6635 12.9167 23.3333V16.6667C12.9123 16.3365 12.7793 16.021 12.5458 15.7876C12.3123 15.5541 11.9968 15.421 11.6667 15.4167ZM10.4167 22.0833H6.25V17.9167H10.4167V22.0833ZM23.3333 15.4167H16.6667C16.3365 15.421 16.021 15.5541 15.7876 15.7876C15.5541 16.021 15.421 16.3365 15.4167 16.6667V23.3333C15.421 23.6635 15.5541 23.979 15.7876 24.2124C16.021 24.4459 16.3365 24.579 16.6667 24.5833H23.3333C23.6635 24.579 23.979 24.4459 24.2124 24.2124C24.4459 23.979 24.579 23.6635 24.5833 23.3333V16.6667C24.579 16.3365 24.4459 16.021 24.2124 15.7876C23.979 15.5541 23.6635 15.421 23.3333 15.4167ZM22.0833 22.0833H17.9167V17.9167H22.0833V22.0833ZM35 15.4167H28.3333C28.0032 15.421 27.6877 15.5541 27.4542 15.7876C27.2207 16.021 27.0877 16.3365 27.0833 16.6667V23.3333C27.0877 23.6635 27.2207 23.979 27.4542 24.2124C27.6877 24.4459 28.0032 24.579 28.3333 24.5833H35C35.3302 24.579 35.6456 24.4459 35.8791 24.2124C36.1126 23.979 36.2457 23.6635 36.25 23.3333V16.6667C36.2457 16.3365 36.1126 16.021 35.8791 15.7876C35.6456 15.5541 35.3302 15.421 35 15.4167ZM33.75 22.0833H29.5833V17.9167H33.75V22.0833ZM23.3333 27.0833H16.6667C16.3365 27.0877 16.021 27.2207 15.7876 27.4542C15.5541 27.6877 15.421 28.0032 15.4167 28.3333V35C15.421 35.3302 15.5541 35.6456 15.7876 35.8791C16.021 36.1126 16.3365 36.2457 16.6667 36.25H23.3333C23.6635 36.2457 23.979 36.1126 24.2124 35.8791C24.4459 35.6456 24.579 35.3302 24.5833 35V28.3333C24.579 28.0032 24.4459 27.6877 24.2124 27.4542C23.979 27.2207 23.6635 27.0877 23.3333 27.0833ZM22.0833 33.75H17.9167V29.5833H22.0833V33.75Z" fill="white"/>
</svg>
