<svg width="40" height="40" viewBox="0 0 40 40" fill="none" xmlns="http://www.w3.org/2000/svg">
<g clip-path="url(#clip0_1133_62)">
<path d="M16.9231 0H1.53849C0.688793 0 0 0.688793 0 1.53849V16.9231C0 17.7728 0.688793 18.4616 1.53849 18.4616H16.9231C17.7728 18.4616 18.4616 17.7728 18.4616 16.9231V1.53849C18.4615 0.688793 17.7728 0 16.9231 0ZM15.3847 15.3847H3.07689V3.07689H15.3846V15.3847H15.3847Z" fill="white"/>
<path d="M38.4616 0H23.0769C22.2272 0 21.5385 0.688793 21.5385 1.53849V16.9231C21.5385 17.7728 22.2272 18.4616 23.0769 18.4616H38.4616C39.3113 18.4616 40.0001 17.7728 40.0001 16.9231V1.53849C40 0.688793 39.3112 0 38.4616 0ZM36.9231 15.3847H24.6154V3.07689H36.9231V15.3847Z" fill="white"/>
<path d="M16.9231 21.5385H1.53849C0.688793 21.5385 0 22.2272 0 23.0769V38.4616C0 39.3113 0.688793 40.0001 1.53849 40.0001H16.9231C17.7728 40.0001 18.4616 39.3113 18.4616 38.4616V23.0769C18.4615 22.2272 17.7728 21.5385 16.9231 21.5385ZM15.3847 36.9231H3.07689V24.6154H15.3846V36.9231H15.3847Z" fill="white"/>
<path d="M38.4616 21.5385H23.0769C22.2272 21.5385 21.5385 22.2272 21.5385 23.0769V38.4616C21.5385 39.3113 22.2272 40.0001 23.0769 40.0001H38.4616C39.3113 40.0001 40.0001 39.3113 40.0001 38.4616V23.0769C40 22.2272 39.3112 21.5385 38.4616 21.5385ZM36.9231 36.9231H24.6154V24.6154H36.9231V36.9231Z" fill="white"/>
</g>
<defs>
<clipPath id="clip0_1133_62">
<rect width="40" height="40" fill="white"/>
</clipPath>
</defs>
</svg>
