<svg width="30" height="30" viewBox="0 0 30 30" fill="none" xmlns="http://www.w3.org/2000/svg">
<path d="M7.5 0.375H1.5C1.20284 0.378885 0.918943 0.498659 0.708801 0.708801C0.498659 0.918943 0.378885 1.20284 0.375 1.5V7.5C0.378885 7.79716 0.498659 8.08106 0.708801 8.2912C0.918943 8.50134 1.20284 8.62111 1.5 8.625H7.5C7.79716 8.62111 8.08106 8.50134 8.2912 8.2912C8.50134 8.08106 8.62111 7.79716 8.625 7.5V1.5C8.62111 1.20284 8.50134 0.918943 8.2912 0.708801C8.08106 0.498659 7.79716 0.378885 7.5 0.375ZM6.375 6.375H2.625V2.625H6.375V6.375ZM28.5 0.375H22.5C22.2028 0.378885 21.9189 0.498659 21.7088 0.708801C21.4987 0.918943 21.3789 1.20284 21.375 1.5V7.5C21.3789 7.79716 21.4987 8.08106 21.7088 8.2912C21.9189 8.50134 22.2028 8.62111 22.5 8.625H28.5C28.7972 8.62111 29.0811 8.50134 29.2912 8.2912C29.5013 8.08106 29.6211 7.79716 29.625 7.5V1.5C29.6211 1.20284 29.5013 0.918943 29.2912 0.708801C29.0811 0.498659 28.7972 0.378885 28.5 0.375ZM27.375 6.375H23.625V2.625H27.375V6.375ZM18 0.375H12C11.7028 0.378885 11.4189 0.498659 11.2088 0.708801C10.9987 0.918943 10.8789 1.20284 10.875 1.5V7.5C10.8789 7.79716 10.9987 8.08106 11.2088 8.2912C11.4189 8.50134 11.7028 8.62111 12 8.625H18C18.2972 8.62111 18.5811 8.50134 18.7912 8.2912C19.0013 8.08106 19.1211 7.79716 19.125 7.5V1.5C19.1211 1.20284 19.0013 0.918943 18.7912 0.708801C18.5811 0.498659 18.2972 0.378885 18 0.375ZM16.875 6.375H13.125V2.625H16.875V6.375ZM7.5 10.875H1.5C1.20284 10.8789 0.918943 10.9987 0.708801 11.2088C0.498659 11.4189 0.378885 11.7028 0.375 12V18C0.378885 18.2972 0.498659 18.5811 0.708801 18.7912C0.918943 19.0013 1.20284 19.1211 1.5 19.125H7.5C7.79716 19.1211 8.08106 19.0013 8.2912 18.7912C8.50134 18.5811 8.62111 18.2972 8.625 18V12C8.62111 11.7028 8.50134 11.4189 8.2912 11.2088C8.08106 10.9987 7.79716 10.8789 7.5 10.875ZM6.375 16.875H2.625V13.125H6.375V16.875ZM18 10.875H12C11.7028 10.8789 11.4189 10.9987 11.2088 11.2088C10.9987 11.4189 10.8789 11.7028 10.875 12V18C10.8789 18.2972 10.9987 18.5811 11.2088 18.7912C11.4189 19.0013 11.7028 19.1211 12 19.125H18C18.2972 19.1211 18.5811 19.0013 18.7912 18.7912C19.0013 18.5811 19.1211 18.2972 19.125 18V12C19.1211 11.7028 19.0013 11.4189 18.7912 11.2088C18.5811 10.9987 18.2972 10.8789 18 10.875ZM16.875 16.875H13.125V13.125H16.875V16.875ZM28.5 10.875H22.5C22.2028 10.8789 21.9189 10.9987 21.7088 11.2088C21.4987 11.4189 21.3789 11.7028 21.375 12V18C21.3789 18.2972 21.4987 18.5811 21.7088 18.7912C21.9189 19.0013 22.2028 19.1211 22.5 19.125H28.5C28.7972 19.1211 29.0811 19.0013 29.2912 18.7912C29.5013 18.5811 29.6211 18.2972 29.625 18V12C29.6211 11.7028 29.5013 11.4189 29.2912 11.2088C29.0811 10.9987 28.7972 10.8789 28.5 10.875ZM27.375 16.875H23.625V13.125H27.375V16.875ZM18 21.375H12C11.7028 21.3789 11.4189 21.4987 11.2088 21.7088C10.9987 21.9189 10.8789 22.2028 10.875 22.5V28.5C10.8789 28.7972 10.9987 29.0811 11.2088 29.2912C11.4189 29.5013 11.7028 29.6211 12 29.625H18C18.2972 29.6211 18.5811 29.5013 18.7912 29.2912C19.0013 29.0811 19.1211 28.7972 19.125 28.5V22.5C19.1211 22.2028 19.0013 21.9189 18.7912 21.7088C18.5811 21.4987 18.2972 21.3789 18 21.375ZM16.875 27.375H13.125V23.625H16.875V27.375Z" fill="#4CAF50"/>
</svg>
