<svg width="36" height="36" viewBox="0 0 36 36" fill="none" xmlns="http://www.w3.org/2000/svg">
<path d="M21 12H22.5C22.8978 12 23.2794 11.842 23.5607 11.5607C23.842 11.2794 24 10.8978 24 10.5C24 10.1022 23.842 9.72064 23.5607 9.43934C23.2794 9.15804 22.8978 9 22.5 9H21C20.6022 9 20.2206 9.15804 19.9393 9.43934C19.658 9.72064 19.5 10.1022 19.5 10.5C19.5 10.8978 19.658 11.2794 19.9393 11.5607C20.2206 11.842 20.6022 12 21 12ZM21 18H22.5C22.8978 18 23.2794 17.842 23.5607 17.5607C23.842 17.2794 24 16.8978 24 16.5C24 16.1022 23.842 15.7206 23.5607 15.4393C23.2794 15.158 22.8978 15 22.5 15H21C20.6022 15 20.2206 15.158 19.9393 15.4393C19.658 15.7206 19.5 16.1022 19.5 16.5C19.5 16.8978 19.658 17.2794 19.9393 17.5607C20.2206 17.842 20.6022 18 21 18ZM13.5 12H15C15.3978 12 15.7794 11.842 16.0607 11.5607C16.342 11.2794 16.5 10.8978 16.5 10.5C16.5 10.1022 16.342 9.72064 16.0607 9.43934C15.7794 9.15804 15.3978 9 15 9H13.5C13.1022 9 12.7206 9.15804 12.4393 9.43934C12.158 9.72064 12 10.1022 12 10.5C12 10.8978 12.158 11.2794 12.4393 11.5607C12.7206 11.842 13.1022 12 13.5 12ZM13.5 18H15C15.3978 18 15.7794 17.842 16.0607 17.5607C16.342 17.2794 16.5 16.8978 16.5 16.5C16.5 16.1022 16.342 15.7206 16.0607 15.4393C15.7794 15.158 15.3978 15 15 15H13.5C13.1022 15 12.7206 15.158 12.4393 15.4393C12.158 15.7206 12 16.1022 12 16.5C12 16.8978 12.158 17.2794 12.4393 17.5607C12.7206 17.842 13.1022 18 13.5 18ZM31.5 30H30V4.5C30 4.10218 29.842 3.72064 29.5607 3.43934C29.2794 3.15804 28.8978 3 28.5 3H7.5C7.10218 3 6.72064 3.15804 6.43934 3.43934C6.15804 3.72064 6 4.10218 6 4.5V30H4.5C4.10218 30 3.72064 30.158 3.43934 30.4393C3.15804 30.7206 3 31.1022 3 31.5C3 31.8978 3.15804 32.2794 3.43934 32.5607C3.72064 32.842 4.10218 33 4.5 33H31.5C31.8978 33 32.2794 32.842 32.5607 32.5607C32.842 32.2794 33 31.8978 33 31.5C33 31.1022 32.842 30.7206 32.5607 30.4393C32.2794 30.158 31.8978 30 31.5 30ZM19.5 30H16.5V24H19.5V30ZM27 30H22.5V22.5C22.5 22.1022 22.342 21.7206 22.0607 21.4393C21.7794 21.158 21.3978 21 21 21H15C14.6022 21 14.2206 21.158 13.9393 21.4393C13.658 21.7206 13.5 22.1022 13.5 22.5V30H9V6H27V30Z" fill="#4CAF50"/>
</svg>
