<svg width="30" height="30" viewBox="0 0 30 30" fill="none" xmlns="http://www.w3.org/2000/svg">
<path d="M11.31 8.31H9.81C9.41218 8.31 9.03064 8.46804 8.74934 8.74934C8.46804 9.03064 8.31 9.41218 8.31 9.81V11.31C8.31 11.7078 8.46804 12.0894 8.74934 12.3707C9.03064 12.652 9.41218 12.81 9.81 12.81C10.2078 12.81 10.5894 12.652 10.8707 12.3707C11.152 12.0894 11.31 11.7078 11.31 11.31C11.7078 11.31 12.0894 11.152 12.3707 10.8707C12.652 10.5894 12.81 10.2078 12.81 9.81C12.81 9.41218 12.652 9.03064 12.3707 8.74934C12.0894 8.46804 11.7078 8.31 11.31 8.31ZM20.19 17.19C19.7922 17.19 19.4106 17.348 19.1293 17.6293C18.848 17.9106 18.69 18.2922 18.69 18.69C18.2922 18.69 17.9106 18.848 17.6293 19.1293C17.348 19.4106 17.19 19.7922 17.19 20.19C17.19 20.5878 17.348 20.9694 17.6293 21.2507C17.9106 21.532 18.2922 21.69 18.69 21.69H20.19C20.387 21.69 20.582 21.6512 20.764 21.5758C20.946 21.5004 21.1114 21.3899 21.2507 21.2507C21.3899 21.1114 21.5004 20.946 21.5758 20.764C21.6512 20.582 21.69 20.387 21.69 20.19V18.69C21.69 18.2922 21.532 17.9106 21.2507 17.6293C20.9694 17.348 20.5878 17.19 20.19 17.19ZM28.5 8.31H21.69V1.5C21.69 1.10218 21.532 0.720644 21.2507 0.43934C20.9694 0.158035 20.5878 0 20.19 0H1.5C1.10218 0 0.720644 0.158035 0.43934 0.43934C0.158035 0.720644 0 1.10218 0 1.5V20.19C0 20.5878 0.158035 20.9694 0.43934 21.2507C0.720644 21.532 1.10218 21.69 1.5 21.69H8.31V28.5C8.31 28.8978 8.46804 29.2794 8.74934 29.5607C9.03064 29.842 9.41218 30 9.81 30H28.5C28.8978 30 29.2794 29.842 29.5607 29.5607C29.842 29.2794 30 28.8978 30 28.5V9.81C30 9.41218 29.842 9.03064 29.5607 8.74934C29.2794 8.46804 28.8978 8.31 28.5 8.31ZM27 27H11.31V21.69C11.7078 21.69 12.0894 21.532 12.3707 21.2507C12.652 20.9694 12.81 20.5878 12.81 20.19C12.81 19.7922 12.652 19.4106 12.3707 19.1293C12.0894 18.848 11.7078 18.69 11.31 18.69C11.31 18.2922 11.152 17.9106 10.8707 17.6293C10.5894 17.348 10.2078 17.19 9.81 17.19C9.41218 17.19 9.03064 17.348 8.74934 17.6293C8.46804 17.9106 8.31 18.2922 8.31 18.69H3V3H18.69V8.31C18.2922 8.31 17.9106 8.46804 17.6293 8.74934C17.348 9.03064 17.19 9.41218 17.19 9.81C17.19 10.2078 17.348 10.5894 17.6293 10.8707C17.9106 11.152 18.2922 11.31 18.69 11.31C18.69 11.7078 18.848 12.0894 19.1293 12.3707C19.4106 12.652 19.7922 12.81 20.19 12.81C20.5878 12.81 20.9694 12.652 21.2507 12.3707C21.532 12.0894 21.69 11.7078 21.69 11.31H27V27Z" fill="#4CAF50"/>
</svg>
