<svg width="18" height="17" viewBox="0 0 18 17" fill="none" xmlns="http://www.w3.org/2000/svg">
<path d="M16.5003 0.166504H1.50033C1.27931 0.166504 1.06735 0.254301 0.91107 0.410582C0.75479 0.566862 0.666992 0.778823 0.666992 0.999837V15.9998C0.666992 16.2208 0.75479 16.4328 0.91107 16.5891C1.06735 16.7454 1.27931 16.8332 1.50033 16.8332H16.5003C16.7213 16.8332 16.9333 16.7454 17.0896 16.5891C17.2459 16.4328 17.3337 16.2208 17.3337 15.9998V0.999837C17.3337 0.778823 17.2459 0.566862 17.0896 0.410582C16.9333 0.254301 16.7213 0.166504 16.5003 0.166504ZM8.16699 15.1665H2.33366V9.33317H8.16699V15.1665ZM8.16699 7.6665H2.33366V1.83317H8.16699V7.6665ZM15.667 15.1665H9.83366V9.33317H15.667V15.1665ZM15.667 7.6665H9.83366V1.83317H15.667V7.6665Z" fill="#4CAF50"/>
</svg>
