<svg width="350" height="908" viewBox="0 0 350 908" fill="none" xmlns="http://www.w3.org/2000/svg">
<g opacity="0.05">
<path d="M321.933 302.667C330.286 302.667 337.065 295.887 337.065 287.535V242.134H473.265V287.535C473.265 295.887 480.029 302.667 488.398 302.667C496.767 302.667 503.531 295.887 503.531 287.535V227C503.531 218.647 496.767 211.867 488.398 211.867H321.931C313.578 211.867 306.798 218.647 306.798 227V287.533C306.8 295.887 313.58 302.667 321.933 302.667Z" fill="white"/>
<path d="M306.8 408.6V469.133C306.8 477.486 313.58 484.266 321.933 484.266C330.286 484.266 337.065 477.486 337.065 469.133V408.6C337.065 400.247 330.286 393.467 321.933 393.467C313.58 393.467 306.8 400.247 306.8 408.6Z" fill="white"/>
<path d="M685.133 635.6C693.502 635.6 700.266 628.82 700.266 620.467V529.667C700.266 521.314 693.502 514.535 685.133 514.535H140.333C131.98 514.535 125.2 521.314 125.2 529.667V620.467C125.2 628.82 131.98 635.6 140.333 635.6C148.686 635.6 155.465 628.82 155.465 620.467V544.8H670V620.467C670 628.82 676.764 635.6 685.133 635.6Z" fill="white"/>
<path d="M594.333 484.267C602.702 484.267 609.465 477.487 609.465 469.135V348.067C609.465 339.714 602.702 332.935 594.333 332.935H231.133C222.78 332.935 216 339.714 216 348.067V469.135C216 477.487 222.78 484.267 231.133 484.267C239.486 484.267 246.265 477.487 246.265 469.135V363.2H579.2V469.133C579.2 477.487 585.964 484.267 594.333 484.267Z" fill="white"/>
<path d="M140.333 302.667H261.4C269.753 302.667 276.533 295.887 276.533 287.535C276.533 279.182 269.753 272.402 261.4 272.402H140.333C131.994 272.402 125.2 265.608 125.2 257.269C125.2 246.025 138.699 238.261 148.535 244.603C152.681 247.281 157.872 247.751 162.428 245.905C166.998 244.059 170.373 240.093 171.478 235.296C174.672 221.509 186.763 211.869 200.867 211.869C214.971 211.869 227.063 221.509 230.257 235.296C231.362 240.093 234.736 244.059 239.307 245.905C243.877 247.751 249.052 247.283 253.2 244.603C255.743 242.968 258.497 242.136 261.402 242.136C269.755 242.136 276.535 235.356 276.535 227.004C276.535 218.651 269.755 211.871 261.402 211.871C258.784 211.871 256.181 212.098 253.623 212.552C243.181 193.741 223.312 181.604 200.869 181.604C178.426 181.604 158.557 193.741 148.115 212.552C145.557 212.098 142.954 211.871 140.336 211.871C115.306 211.871 94.9363 232.241 94.9363 257.271C94.9363 282.301 115.302 302.667 140.333 302.667Z" fill="white"/>
<path d="M321.933 575.067C313.58 575.067 306.8 581.847 306.8 590.2V892.867C306.8 901.22 313.58 908 321.933 908C330.286 908 337.065 901.22 337.065 892.867V590.2C337.067 581.847 330.287 575.067 321.933 575.067Z" fill="white"/>
<path d="M140.333 726.4C131.98 726.4 125.2 733.18 125.2 741.533V892.866C125.2 901.218 131.98 907.998 140.333 907.998C148.686 907.998 155.465 901.218 155.465 892.866V741.533C155.467 733.18 148.687 726.4 140.333 726.4Z" fill="white"/>
<path d="M231.133 665.867H49.5327C41.1799 665.867 34.4 672.647 34.4 681V892.867C34.4 901.22 41.1799 908 49.5327 908C57.8856 908 64.6655 901.22 64.6655 892.867V696.133H216V892.865C216 901.218 222.78 907.998 231.133 907.998C239.486 907.998 246.265 901.218 246.265 892.865V681C246.267 672.647 239.487 665.867 231.133 665.867Z" fill="white"/>
<path d="M231.133 575.067C222.78 575.067 216 581.847 216 590.2V620.467C216 628.82 222.78 635.6 231.133 635.6C239.486 635.6 246.265 628.82 246.265 620.467V590.2C246.267 581.847 239.487 575.067 231.133 575.067Z" fill="white"/>
</g>
</svg>
