<svg
    width="18"
    height="18"
    viewBox="0 0 18 18"
    fill="none"
    xmlns="http://www.w3.org/2000/svg"
>
    <path
    d="M15.75 9.00002C15.5511 9.00002 15.3603 9.07903 15.2197 9.21969C15.079 9.36034 15 9.5511 15 9.75002V14.25C15 14.4489 14.921 14.6397 14.7803 14.7803C14.6397 14.921 14.4489 15 14.25 15H3.75C3.55109 15 3.36032 14.921 3.21967 14.7803C3.07902 14.6397 3 14.4489 3 14.25V3.75002C3 3.5511 3.07902 3.36034 3.21967 3.21969C3.36032 3.07903 3.55109 3.00002 3.75 3.00002H8.25C8.44891 3.00002 8.63968 2.921 8.78033 2.78035C8.92098 2.63969 9 2.44893 9 2.25002C9 2.0511 8.92098 1.86034 8.78033 1.71969C8.63968 1.57903 8.44891 1.50002 8.25 1.50002H3.75C3.15326 1.50002 2.58097 1.73707 2.15901 2.15903C1.73705 2.58098 1.5 3.15328 1.5 3.75002V14.25C1.5 14.8468 1.73705 15.419 2.15901 15.841C2.58097 16.263 3.15326 16.5 3.75 16.5H14.25C14.8467 16.5 15.419 16.263 15.841 15.841C16.2629 15.419 16.5 14.8468 16.5 14.25V9.75002C16.5 9.5511 16.421 9.36034 16.2803 9.21969C16.1397 9.07903 15.9489 9.00002 15.75 9.00002ZM4.5 9.57001V12.75C4.5 12.9489 4.57902 13.1397 4.71967 13.2803C4.86032 13.421 5.05109 13.5 5.25 13.5H8.43C8.5287 13.5006 8.62655 13.4817 8.71793 13.4443C8.80931 13.407 8.89242 13.352 8.9625 13.2825L14.1525 8.08502L16.2825 6.00002C16.3528 5.93029 16.4086 5.84734 16.4467 5.75595C16.4847 5.66455 16.5043 5.56652 16.5043 5.46752C16.5043 5.36851 16.4847 5.27048 16.4467 5.17908C16.4086 5.08769 16.3528 5.00474 16.2825 4.93502L13.1025 1.71752C13.0328 1.64722 12.9498 1.59142 12.8584 1.55335C12.767 1.51527 12.669 1.49567 12.57 1.49567C12.471 1.49567 12.373 1.51527 12.2816 1.55335C12.1902 1.59142 12.1072 1.64722 12.0375 1.71752L9.9225 3.84002L4.7175 9.03752C4.64799 9.1076 4.59299 9.19071 4.55567 9.28209C4.51835 9.37346 4.49943 9.47131 4.5 9.57001ZM12.57 3.30752L14.6925 5.43002L13.6275 6.49502L11.505 4.37252L12.57 3.30752ZM6 9.87752L10.4475 5.43002L12.57 7.55252L8.1225 12H6V9.87752Z"
    fill="#666666"
    />
</svg>