<svg width="37" height="37" viewBox="0 0 37 37" fill="none" xmlns="http://www.w3.org/2000/svg">
<g clip-path="url(#clip0_1_39)">
<path d="M1 15L1 6H0L0 15H1Z" fill="#757575"/>
<path d="M11 15V6H10V15H11Z" fill="#757575"/>
<path d="M0 6L11 6V5L0 5V6Z" fill="#757575"/>
<path d="M0 16L11 16V15L0 15V16Z" fill="#757575"/>
<path d="M1 31L1 22H0L0 31H1Z" fill="#757575"/>
<path d="M11 31V22H10V31H11Z" fill="#757575"/>
<path d="M0 22H11V21H0V22Z" fill="#757575"/>
<path d="M0 32H11V31H0V32Z" fill="#757575"/>
<path d="M14 15V6H13V15H14Z" fill="#757575"/>
<path d="M24 15V6H23V15H24Z" fill="#757575"/>
<path d="M13 6L24 6V5L13 5V6Z" fill="#757575"/>
<path d="M13 16L24 16V15L13 15V16Z" fill="#757575"/>
<path d="M14 31V22H13V31H14Z" fill="#757575"/>
<path d="M24 31V22H23V31H24Z" fill="#757575"/>
<path d="M13 22H24V21H13V22Z" fill="#757575"/>
<path d="M13 32H24V31H13V32Z" fill="#757575"/>
<path d="M27 15V6H26V15H27Z" fill="#757575"/>
<path d="M37 15V6H36V15H37Z" fill="#757575"/>
<path d="M26 6L37 6V5L26 5V6Z" fill="#757575"/>
<path d="M26 16L37 16V15L26 15V16Z" fill="#757575"/>
<path d="M27 31V22H26V31H27Z" fill="#757575"/>
<path d="M37 31V22H36V31H37Z" fill="#757575"/>
<path d="M26 22H37V21H26V22Z" fill="#757575"/>
<path d="M26 32H37V31H26V32Z" fill="#757575"/>
</g>
<defs>
<clipPath id="clip0_1_39">
<rect width="37" height="27" fill="white" transform="translate(0 5)"/>
</clipPath>
</defs>
</svg>
